<svg id="Capa_1" data-name="Capa 1" xmlns="http://www.w3.org/2000/svg" viewBox="0 0 1080 1080"><title>SYX_ICONO_FACEBOOK</title><path d="M539.66,14.24C828.78,14.3,1061,246.5,1060.94,535.39c-.1,288.69-232.83,520.93-521.77,520.66-287.28-.26-520.43-233.29-520.11-519.82C19.39,246.54,251.13,14.18,539.66,14.24Zm41.25,825.27V541.8h87.72c3.51-40.51,6.84-78.91,10.4-120H584.66c0-13.46-.09-24.59,0-35.73.31-32.26,6.27-38.41,37.79-38.67,18-.15,36,0,53.71,0v-103c-31.59,0-61.16-.31-90.72.06-79.72,1-124.32,45.32-125.81,124.91-.32,17.09,0,34.19,0,54.05H402.32V542.58h58.22V839.51Z" /></svg>