<svg id="Capa_1" data-name="Capa 1" xmlns="http://www.w3.org/2000/svg" viewBox="0 0 1080 1080"><title>SYX_ICONO_INSTA</title><path d="M1060.31,536.45c-1.06,291.48-234.17,520.85-528,519.55-283.5-1.26-515.46-237.5-514-523.48,1.47-289.3,235.53-519.43,527.1-518.23C830.05,15.46,1061.35,250,1060.31,536.45Zm-183.45-1.14h-.23c0-48.75.56-97.5-.12-146.23C875,280.63,792.08,198.48,683.29,197.9q-144.91-.77-289.84,0C286.18,198.57,202.34,283.5,202,391.38Q201.5,533.7,201.92,676c.4,112.94,83.39,196,196.4,196.42q139.7.58,279.4,0C794.6,872.08,876,790.72,876.81,673.7,877.12,627.57,876.86,581.44,876.86,535.31Z"/><path d="M818.54,536.78c0,46.18.24,92.36,0,138.54-.45,80.88-57.28,138.55-138,139q-141.15.86-282.31,0c-78.59-.46-136.24-55.67-137.54-134.24-1.6-96.69-1.42-193.44-.05-290.14,1.09-76.75,58.48-133,135.31-133.81q143.75-1.44,287.53,0c77.66.78,134.23,58.86,135,136.82C818.89,440.93,818.51,488.85,818.54,536.78Zm-451.75.54c1.89,96,79.67,172.44,174.24,171.33,95.67-1.12,173.7-81.37,171.91-176.8-1.77-94-83.09-172.5-176.11-170.1C441.11,364.22,364.93,442.89,366.79,537.32ZM761.13,352.67c0-22.93-17.85-41-41-41.35a41.72,41.72,0,0,0-42.43,40.2c-.73,22.94,19.78,43.83,42.61,43.39C742.58,394.49,761.08,375.34,761.13,352.67Z"/><path d="M539.56,649c-64-.12-114.14-50.62-113.87-114.69.28-63.74,51.25-113.66,115.42-113,62.61.61,113.08,51.24,112.92,113.29C653.87,598.58,603.31,649.12,539.56,649Z"/></svg>