<svg id="Capa_1" data-name="Capa 1" xmlns="http://www.w3.org/2000/svg" viewBox="0 0 1080 1080"><title>SYX_ICONO_linkedin</title><path d="M546.08,14.29C254.52,13.09,20.46,243.22,19,532.52,17.53,818.5,249.5,1054.74,533,1056c293.85,1.3,527-228.07,528-519.55C1062.06,250,830.75,15.46,546.08,14.29Zm-172,815.23H255.7V440.29H374.09ZM314,379.13c-38.95-.23-68.71-30.87-68.41-70.43a68.78,68.78,0,0,1,68.53-68.48c38.19-.08,70.37,31.78,70.39,69.69S352.55,379.36,314,379.13ZM833.65,820.77c0,2.57-.79,5.15-1.48,9.3H716.05c-.34-7.67-.93-14.81-.94-22,0-61.82.29-123.64,0-185.46-.22-53.84-25.65-81.39-74.34-81.43s-79.56,31.92-79.71,83.22c-.17,58.42,0,116.84,0,175.27V829.3H444.45V440.09H554v51c7.53-6.79,11.8-10.4,15.81-14.29,58.25-56.53,149.15-62,211.87-11.66,33.25,26.67,49.72,64.46,51.15,105C835.75,653.58,833.71,737.21,833.65,820.77Z"/></svg>