<svg id="Capa_1" data-name="Capa 1" xmlns="http://www.w3.org/2000/svg" viewBox="0 0 1080 1080"><title>SYX_ICONO_WHATSAPP</title><path d="M19,535.51C20.09,244.12,252.2,13.06,542.66,14.23,830.8,15.4,1062.35,249.7,1061,538.69c-1.37,286.63-235.43,518.26-522.81,517.37C250.5,1055.17,18,822,19,535.51ZM266.2,833.27c52.12-16.34,98.13-31.53,144.7-44.78,10.46-3,24.23-2.3,34.12,2,51.44,22.61,104.36,30.9,160.37,25.2C759.44,800.06,872.65,662,861.77,501.59c-10-147.92-148.48-271.09-297.85-265-220.25,9-350.42,228.21-253.53,426,4.62,9.41,5,23.47,1.84,33.68C298.71,740.2,283.13,783.52,266.2,833.27Z"/><path d="M339.26,762.37c36.93-51.85,20.43-98,0-150.71-50.53-130,31.92-276.57,168.1-312,140-36.4,277.12,51.33,304.79,195C837.7,627.57,738,760.15,600.91,776.8c-51,6.19-99.24-1.44-143.67-26.12-18.07-10-33.08-10.31-51.17-3.32-19.13,7.4-39.1,12.62-58.71,18.78Zm310.7-85c19.12-9.58,37.92-15.31,52-26.83,26.67-21.87,22.36-47.33-7.81-62.1-6.25-3.06-12.91-5.46-18.72-9.2-19.83-12.77-36.28-13.2-48.88,10.18-9.5,17.64-24.8,19.15-39.12,7.64-26.13-21-51.22-43.34-75.94-66-11.5-10.55-11.1-22.09,1.39-33.29C526,486,528.56,471.89,519.26,455.7c-5.16-9-8.15-19.19-12.27-28.79-12.81-29.87-39.15-34.17-60.27-9.22-24.92,29.44-25.4,62.52-8.78,95.21,26.91,53,63.72,98.43,116.75,126.73C584.15,655.34,617.06,664.6,650,677.38Z"/></svg>