<svg id="Capa_1" data-name="Capa 1" xmlns="http://www.w3.org/2000/svg" viewBox="0 0 1080 1080"><title>SYX_ICONO_X</title><path d="M402.23,277.13c-3.16-4.58-7.53-11.59-11.6-11.77-24.23-1.12-48.55-.55-75-.55,2.64,4.4,3.58,6.19,4.72,7.84q73.62,107,147.3,214.06,106,153.93,212.2,307.67c3.43,5,10.2,10.34,15.68,10.64,22.38,1.2,44.87.5,70.51.5-29.7-43.17-57.51-83.62-85.35-124.06Q541.52,479.26,402.23,277.13Z"/><path d="M546.08,14.29C254.52,13.09,20.46,243.22,19,532.52,17.53,818.5,249.5,1054.74,533,1056c293.85,1.3,527-228.07,528-519.55C1062.06,250,830.75,15.46,546.08,14.29ZM759.27,847.11c-25.73,0-51.51-.87-77.19.35-13.63.65-21-4.6-28.27-15.41C604.34,759,554.19,686.38,504.22,613.66c-1.8-2.62-4.07-4.91-7.73-9.25C464.16,642,432.74,678.51,401.35,715c-35.26,41.05-70.27,82.3-106,122.92-4.23,4.81-12.2,8-18.79,8.73-12.63,1.37-25.51.4-42.26.4L473.06,568.92,235.18,223.13h47.64c39.15,0,78.3.57,117.43-.34,12.35-.29,19,4,25.78,13.93,48.66,71.67,98,142.88,147.71,215.12,35.65-41.53,70.83-82.51,106-123.47,28.27-32.9,56.44-65.91,85.06-98.51a21.32,21.32,0,0,1,13.36-6.44c13.81-.83,27.71-.3,45.53-.3-19.13,22.54-36.09,42.79-53.32,62.8C715.17,350.07,660,414.28,604.37,478c-6.89,7.9-4,12.48.58,19.19Q707,645.15,808.73,793.31l37,53.8Z"/></svg>