<svg id="Capa_1" data-name="Capa 1" xmlns="http://www.w3.org/2000/svg" viewBox="0 0 1080 1080"><title>SYX_ICONO_YOUTUBE</title><path d="M472.1,636.64,650.39,535.11,472.1,433.81Z"/><path d="M546.08,14.29C254.52,13.09,20.46,243.22,19,532.52,17.53,818.5,249.5,1054.74,533,1056c293.85,1.3,527-228.07,528-519.55C1062.06,250,830.75,15.46,546.08,14.29ZM873.77,588.78c-.46,34.78-3.32,69.6-12.12,103.48-11,42.5-33.8,63.09-77.44,67.85-34.59,3.78-69.39,6.16-104.16,7.54-50.63,2-101.31,3.66-152,3.43-54.67-.25-109.36-2.24-164-4.67a659,659,0,0,1-75-8c-40.21-6.45-62.91-29.64-70.88-69.67-10.2-51.25-13.08-103.09-12-155.16.64-32.42,1.48-64.9,4.25-97.17a417.57,417.57,0,0,1,11.41-65.5c8.7-34.55,32.32-54.49,67.27-59.36a825,825,0,0,1,83.14-7.77c64.29-2.39,128.63-3.39,176.09-4.54,71,1.7,125.23,2.17,179.31,4.68,24.49,1.14,49,5.25,73.12,10,33.1,6.5,53.59,28.05,60.44,60.49,5.45,25.82,9.58,52.25,10.82,78.57C874.11,498.14,874.37,543.5,873.77,588.78Z"/></svg>